<svg width="163" height="126" viewBox="0 0 163 126" fill="none" xmlns="http://www.w3.org/2000/svg">
<path d="M137.882 10.5525C127.346 5.62277 116.08 2.04004 104.301 0C102.855 2.61526 101.165 6.13283 99.9998 8.93105C87.4791 7.0481 75.0735 7.0481 62.7831 8.93105C61.6182 6.13283 59.8898 2.61526 58.4304 0C46.6393 2.04004 35.3603 5.63593 24.8238 10.5786C3.57175 42.6933 -2.18934 74.0103 0.69121 104.883C14.7867 115.409 28.447 121.803 41.8767 125.987C45.1925 121.424 48.1499 116.573 50.6975 111.46C45.8454 109.616 41.1982 107.341 36.807 104.7C37.972 103.837 39.1115 102.934 40.2124 102.006C66.9951 114.533 96.0951 114.533 122.558 102.006C123.672 102.934 124.811 103.837 125.963 104.7C121.559 107.354 116.899 109.629 112.047 111.473C114.595 116.573 117.539 121.437 120.868 126C134.311 121.816 147.983 115.422 162.079 104.883C165.459 69.0938 156.305 38.0644 137.882 10.5525ZM54.3463 85.8965C46.3064 85.8965 39.713 78.3908 39.713 69.2506C39.713 60.1105 46.1656 52.5918 54.3463 52.5918C62.5272 52.5918 69.1203 60.0973 68.9795 69.2506C68.9923 78.3908 62.5272 85.8965 54.3463 85.8965ZM108.424 85.8965C100.384 85.8965 93.7907 78.3908 93.7907 69.2506C93.7907 60.1105 100.243 52.5918 108.424 52.5918C116.605 52.5918 123.198 60.0973 123.057 69.2506C123.057 78.3908 116.605 85.8965 108.424 85.8965Z" fill="#F45D34"/>
</svg>
