<svg width="36" height="58" viewBox="0 0 36 58" fill="none" xmlns="http://www.w3.org/2000/svg">
<path d="M30.5927 39.9639H21.9932L21.9315 39.9637V36.1045C29.9034 34.3517 35.8909 27.2422 35.8909 18.7517C35.8909 8.94998 27.9165 0.975586 18.1149 0.975586C8.31304 0.975586 0.338867 8.94998 0.338867 18.7517C0.338867 27.2423 6.32641 34.3519 14.2983 36.1046V39.9639H5.63705C4.99994 39.9639 4.48374 40.4803 4.48374 41.1173V46.4441C4.48374 47.0811 5.00005 47.5974 5.63705 47.5974H14.2983V56.2586C14.2983 56.8955 14.8146 57.4119 15.4516 57.4119H20.7782C21.4152 57.4119 21.9315 56.8955 21.9315 56.2586V47.5974H30.5927C31.2298 47.5974 31.746 47.0811 31.746 46.4441V41.1173C31.746 40.4803 31.2298 39.9639 30.5927 39.9639ZM18.1149 7.61513C24.2555 7.61513 29.2514 12.6111 29.2514 18.7517C29.2514 24.8924 24.2555 29.8883 18.1149 29.8883C11.974 29.8883 6.97852 24.8925 6.97852 18.7517C6.97852 12.611 11.974 7.61513 18.1149 7.61513Z" fill="#FF7BCA"/>
</svg>
