<svg width="126" height="126" viewBox="0 0 126 126" fill="none" xmlns="http://www.w3.org/2000/svg">
<path d="M37.2273 0C16.695 0 0 16.695 0 37.2273V88.7727C0 109.305 16.695 126 37.2273 126H88.7727C109.305 126 126 109.305 126 88.7727V37.2273C126 16.695 109.305 0 88.7727 0H37.2273ZM97.3636 22.9091C100.514 22.9091 103.091 25.4864 103.091 28.6364C103.091 31.7864 100.514 34.3636 97.3636 34.3636C94.2136 34.3636 91.6364 31.7864 91.6364 28.6364C91.6364 25.4864 94.2136 22.9091 97.3636 22.9091ZM63 31.5C80.3823 31.5 94.5 45.6177 94.5 63C94.5 80.3823 80.3823 94.5 63 94.5C45.6177 94.5 31.5 80.3823 31.5 63C31.5 45.6177 45.6177 31.5 63 31.5ZM63 37.2273C48.7964 37.2273 37.2273 48.7964 37.2273 63C37.2273 77.2036 48.7964 88.7727 63 88.7727C77.2036 88.7727 88.7727 77.2036 88.7727 63C88.7727 48.7964 77.2036 37.2273 63 37.2273Z" fill="#F45D34"/>
</svg>
