<svg width="126" height="126" viewBox="0 0 126 126" fill="none" xmlns="http://www.w3.org/2000/svg">
<path d="M111 0H15C6.729 0 0 6.729 0 15V111C0 119.271 6.729 126 15 126H111C119.271 126 126 119.271 126 111V15C126 6.729 119.271 0 111 0ZM99.018 54.969C98.337 55.032 97.647 55.074 96.948 55.074C89.079 55.074 82.164 51.027 78.141 44.91C78.141 60.957 78.141 79.215 78.141 79.521C78.141 93.648 66.687 105.102 52.56 105.102C38.433 105.102 26.979 93.648 26.979 79.521C26.979 65.394 38.433 53.94 52.56 53.94C53.094 53.94 53.616 53.988 54.141 54.021V66.627C53.616 66.564 53.1 66.468 52.56 66.468C45.348 66.468 39.504 72.312 39.504 79.524C39.504 86.736 45.348 92.58 52.56 92.58C59.772 92.58 66.141 86.898 66.141 79.686C66.141 79.401 66.267 20.904 66.267 20.904H78.315C79.449 31.677 88.146 40.179 99.018 40.959V54.969Z" fill="#F45D34"/>
</svg>
