<svg width="157" height="126" viewBox="0 0 157 126" fill="none" xmlns="http://www.w3.org/2000/svg">
<path d="M157 14.8984C151.231 17.4445 145.025 19.1433 138.48 19.9471C145.134 16.0107 150.254 9.73241 152.657 2.31579C146.43 5.95241 139.531 8.62448 132.192 10.0322C126.331 3.84083 117.971 0 108.709 0C90.9172 0 76.4962 14.2423 76.4962 31.8041C76.4962 34.2894 76.7884 36.7094 77.3379 39.06C50.5716 37.7218 26.8317 25.0436 10.9498 5.80469C8.15896 10.5058 6.58909 16.0107 6.58909 21.8197C6.58909 32.8599 12.2624 42.5793 20.9141 48.3058C15.6333 48.145 10.662 46.6808 6.31 44.3346C6.31 44.4302 6.31 44.5736 6.31 44.7083C6.31 60.1368 17.4168 72.9844 32.1387 75.9085C29.4481 76.6428 26.6049 77.0512 23.6745 77.0512C21.5944 77.0512 19.5667 76.8166 17.6043 76.4646C21.7034 89.0733 33.5952 98.2887 47.6848 98.5624C36.6608 107.078 22.7762 112.179 7.67928 112.179C5.07155 112.179 2.52051 112.031 0 111.727C14.264 120.725 31.2011 126 49.3811 126C108.622 126 141.031 77.5291 141.031 35.4799C141.031 34.1026 140.987 32.7296 140.922 31.374C147.245 26.9249 152.696 21.3114 157 14.8984Z" fill="#F45D34"/>
</svg>
