<svg width="175" height="124" viewBox="0 0 175 124" fill="none" xmlns="http://www.w3.org/2000/svg">
<path d="M73.4148 0.188314C55.7025 0.444483 33.123 1.61554 24.8524 2.67682C17.643 3.62831 13.3247 5.53128 9.37241 9.48361C6.81071 12.0453 4.72476 15.5219 3.73667 18.9253C1.10178 27.8546 -0.581617 53.2154 0.186892 72.0988C0.772423 86.6639 1.94348 97.8988 3.55369 103.791C5.96901 112.866 12.6294 118.795 22.2175 120.478C34.3307 122.564 74.4761 123.955 104.119 123.26C135.079 122.564 150.741 121.43 156.67 119.417C160.915 117.953 164.392 115.501 166.99 112.098C170.101 108.036 171.198 104.706 172.589 95.3371C173.943 86.0784 174.236 80.1499 174.236 61.7788C174.236 43.4078 173.943 37.4793 172.589 28.2206C171.564 21.304 170.869 18.413 169.478 15.4853C166.844 10.0691 162.379 6.08022 156.67 4.14065C150.888 2.20108 134.786 0.993418 105.253 0.298101C96.9093 0.115122 87.614 -0.0312603 84.5765 0.00533533C81.5757 0.0785267 76.5255 0.115122 73.4148 0.188314ZM79.3433 40.7363C84.0276 43.5176 89.1876 46.5184 90.7978 47.4699C92.408 48.4214 98.5561 51.9712 104.411 55.4112C110.303 58.8146 115.134 61.669 115.134 61.7788C115.134 61.8886 112.865 63.2792 110.084 64.8529C107.339 66.4631 103.936 68.4392 102.508 69.2809C101.118 70.1226 98.2999 71.7328 96.2871 72.9039C89.8097 76.6733 88.0165 77.7345 79.3433 82.8213C74.6591 85.566 70.5604 87.9081 70.2676 88.0179C69.8285 88.1643 69.7553 84.5779 69.7553 61.7788C69.7553 38.9797 69.8285 35.3934 70.2676 35.5397C70.5604 35.6495 74.6591 37.9916 79.3433 40.7363Z" fill="#F45D34"/>
</svg>
